<svg xmlns="http://www.w3.org/2000/svg" version="1.1" xmlns:xlink="http://www.w3.org/1999/xlink" xmlns:svgjs="http://svgjs.dev/svgjs" width="1000" height="1000" viewBox="0 0 1000 1000"><g transform="matrix(1,0,0,1,-0.14221556886212738,-0.14221556886229791)"><svg viewBox="0 0 334 334" data-background-color="#ffffff" preserveAspectRatio="xMidYMid meet" height="1000" width="1000" xmlns="http://www.w3.org/2000/svg" xmlns:xlink="http://www.w3.org/1999/xlink"><g id="tight-bounds" transform="matrix(1,0,0,1,0.04749999999998522,0.04750000000001364)"><svg viewBox="0 0 333.90454557049503 333.90454557049503" height="333.90454557049503" width="333.90454557049503"><g><svg></svg></g><g><svg viewBox="0 0 333.90454557049503 333.90454557049503" height="333.90454557049503" width="333.90454557049503"><g><path d="M0 166.952c0-92.205 74.747-166.952 166.952-166.952 92.205 0 166.952 74.747 166.953 166.952 0 92.205-74.747 166.952-166.953 166.953-92.205 0-166.952-74.747-166.952-166.953zM166.952 327.306c88.561 0 160.354-71.793 160.354-160.354 0-88.561-71.793-160.354-160.354-160.354-88.561 0-160.354 71.793-160.354 160.354 0 88.561 71.793 160.354 160.354 160.354z" data-fill-palette-color="tertiary" fill="#ffffff" stroke="transparent"></path><ellipse rx="160.27418187383762" ry="160.27418187383762" cx="166.95227278524752" cy="166.95227278524752" fill="#ffffff" stroke="transparent" stroke-width="0" fill-opacity="1" data-fill-palette-color="tertiary"></ellipse></g><g transform="matrix(1,0,0,1,96.6500775399591,71.17305217166896)"><svg viewBox="0 0 140.60439049057683 191.55844122715712" height="191.55844122715712" width="140.60439049057683"><g><svg viewBox="0 0 140.60439049057683 191.55844122715712" height="191.55844122715712" width="140.60439049057683"><g><svg viewBox="0 0 213.1584412271571 290.4055740607996" height="191.55844122715712" width="140.60439049057683"><g transform="matrix(1,0,0,1,0,179.4822952633928)"><svg viewBox="0 0 213.1584412271571 110.9232787974068" height="110.9232787974068" width="213.1584412271571"><g id="textblocktransform"><svg viewBox="0 0 213.1584412271571 110.9232787974068" height="110.9232787974068" width="213.1584412271571" id="textblock"><g><svg viewBox="0 0 213.1584412271571 110.9232787974068" height="110.9232787974068" width="213.1584412271571"><g transform="matrix(1,0,0,1,0,0)"><svg width="213.1584412271571" viewBox="3.059999942779541 -26.239999771118164 71.94000244140625 37.439998626708984" height="110.9232787974068" data-palette-color="#e76f51"><path d="M43.6-16.76L43.6 0 34.71 0 34.71-14Q34.71-16.68 34-17.96 33.29-19.24 31.72-19.24L31.72-19.24Q29.68-19.24 28.73-17.49 27.78-15.75 27.78-12.01L27.78-12.01 27.78 0 18.86 0 18.86-14Q18.86-16.66 18.16-17.95 17.47-19.24 15.98-19.24L15.98-19.24Q13.85-19.24 12.9-17.37 11.96-15.5 11.96-11.27L11.96-11.27 11.96 0 3.06 0 3.06-25.78 9.78-25.78 10.89-22.6 11.43-22.6Q12.41-24.34 14.36-25.29 16.3-26.24 18.81-26.24L18.81-26.24Q24.39-26.24 26.64-22.85L26.64-22.85 27.35-22.85Q28.44-24.44 30.38-25.34 32.33-26.24 34.68-26.24L34.68-26.24Q39.21-26.24 41.41-23.9 43.6-21.56 43.6-16.76L43.6-16.76ZM52.55 11.2L52.55 11.2Q50.78 11.2 48.91 10.82L48.91 10.82 48.91 3.82Q50.15 4.1 51.49 4.1L51.49 4.1Q53.97 4.1 55.28 2.35L55.28 2.35Q55.94 1.49 56.7-0.35L56.7-0.35 46.53-25.78 55.91-25.78 60.29-11Q60.61-9.76 60.72-8.19L60.72-8.19 60.89-8.19Q61.09-9.86 61.45-10.95L61.45-10.95 65.92-25.78 75-25.78 64.81 1.64Q62.84 6.85 59.98 9.02 57.13 11.2 52.55 11.2Z" opacity="1" transform="matrix(1,0,0,1,0,0)" fill="#e76f51" class="wordmark-text-0" data-fill-palette-color="quaternary" id="text-0"></path></svg></g></svg></g></svg></g></svg></g><g transform="matrix(1,0,0,1,69.44258758804696,0)"><svg viewBox="0 0 74.2732660510632 153.2959712980162" height="153.2959712980162" width="74.2732660510632"><g><svg xmlns="http://www.w3.org/2000/svg" viewBox="27.195152282714844 13.602343559265137 25.61969757080078 52.87765884399414" x="0" y="0" height="153.2959712980162" width="74.2732660510632" class="icon-icon-0" data-fill-palette-color="quaternary" id="icon-0"><g fill="#e76f51" data-fill-palette-color="quaternary"><path d="M48.54 49.6a4.27 4.27 0 0 0 4.25-4.73 32.49 32.49 0 0 0-4.89-14l1.65-6.55a4.8 4.8 0 0 0-4.65-6H42.4V16a2.4 2.4 0 0 0-4.8 0v2.4H35.11a4.8 4.8 0 0 0-4.65 6l1.65 6.55a32.43 32.43 0 0 0-4.89 14 4.27 4.27 0 0 0 4.25 4.73H37.6v12H32.8a2.4 2.4 0 0 0 0 4.8H47.2a2.4 2.4 0 0 0 0-4.8H42.4v-12ZM36.66 32.72A2.39 2.39 0 0 0 37 30.77L35.11 23.2h9.79L43 30.77a2.39 2.39 0 0 0 0.35 1.94A27.66 27.66 0 0 1 47.95 44.8H32A27.68 27.68 0 0 1 36.66 32.72Z" fill="#e76f51" data-fill-palette-color="quaternary"></path></g></svg></g></svg></g><g></g></svg></g></svg></g></svg></g></svg></g><defs></defs></svg><rect width="333.90454557049503" height="333.90454557049503" fill="none" stroke="none" visibility="hidden"></rect></g></svg></g></svg>