<svg width="638" height="303" viewBox="0 0 638 303" fill="none" xmlns="http://www.w3.org/2000/svg">
<path d="M454.203 118.468V216.533H402.187V134.617C402.187 124.163 400.802 116.44 398.033 111.447C395.263 106.454 390.816 103.958 384.692 103.958C376.735 103.958 370.903 107.371 367.197 114.197C363.492 120.984 361.639 131.672 361.639 146.261V216.533H309.447V134.617C309.447 124.241 308.082 116.537 305.351 111.506C302.66 106.474 298.408 103.958 292.596 103.958C284.288 103.958 278.28 107.605 274.575 114.899C270.908 122.194 269.075 134.091 269.075 150.591V216.533H217V65.6915H256.319L262.814 84.298H265.974C269.796 77.5107 275.511 72.2642 283.117 68.5585C290.685 64.8528 299.364 63 309.155 63C330.921 63 346.192 69.6117 354.969 82.8352H359.123C363.375 76.633 369.284 71.7766 376.852 68.266C384.458 64.7553 392.845 63 402.011 63C419.682 63 432.808 67.5639 441.389 76.6915C449.932 85.8192 454.203 99.7448 454.203 118.468ZM506.57 282.065C499.666 282.065 492.567 281.324 485.272 279.841V238.884C490.109 239.976 495.141 240.522 500.368 240.522C510.042 240.522 517.434 237.109 522.544 230.283C525.118 226.928 527.888 221.662 530.852 214.485L471.347 65.6915H526.23L551.858 152.171C553.106 157.007 553.945 162.488 554.374 168.612H555.368C556.149 162.098 557.241 156.715 558.645 152.463L584.799 65.6915H637.927L578.305 226.128C570.62 246.451 561.2 260.845 550.044 269.309C538.927 277.813 524.436 282.065 506.57 282.065Z" fill="#E76F51"/>
<path d="M122.209 206.116C125.644 206.12 129.041 205.399 132.179 204.002C135.317 202.605 138.126 200.563 140.421 198.008C142.717 195.453 144.449 192.442 145.503 189.173C146.558 185.904 146.912 182.449 146.542 179.034C143.513 150.515 133.931 123.081 118.544 98.8783L127.991 61.3767C129.04 57.3145 129.145 53.066 128.298 48.957C127.451 44.848 125.674 40.9875 123.104 37.6714C120.534 34.3553 117.239 31.6716 113.471 29.826C109.704 27.9804 105.563 27.0219 101.368 27.024H87.0544V13.741C87.0544 10.0967 85.6067 6.6016 83.0297 4.02466C80.4528 1.44771 76.9577 0 73.3133 0C69.669 0 66.1739 1.44771 63.597 4.02466C61.02 6.6016 59.5723 10.0967 59.5723 13.741V27.4821H45.316C41.1205 27.48 36.9803 28.4384 33.2126 30.284C29.445 32.1296 26.1498 34.8133 23.5798 38.1294C21.0099 41.4455 19.2332 45.3061 18.3861 49.4151C17.5389 53.5241 17.6438 57.7725 18.6927 61.8347L28.1397 99.3363C12.7416 123.534 3.15859 150.97 0.14228 179.492C-0.227773 182.907 0.125993 186.362 1.18051 189.631C2.23504 192.9 3.96665 195.911 6.26248 198.466C8.5583 201.021 11.3668 203.064 14.5049 204.461C17.6431 205.858 21.0403 206.578 24.4754 206.574H59.5723V275.279H32.0902C28.4459 275.279 24.9508 276.727 22.3738 279.304C19.7969 281.88 18.3492 285.376 18.3492 289.02C18.3492 292.664 19.7969 296.159 22.3738 298.736C24.9508 301.313 28.4459 302.761 32.0902 302.761H114.536C118.181 302.761 121.676 301.313 124.253 298.736C126.83 296.159 128.277 292.664 128.277 289.02C128.277 285.376 126.83 281.88 124.253 279.304C121.676 276.727 118.181 275.279 114.536 275.279H87.0544V206.574L122.209 206.116ZM54.1904 109.47C55.2935 107.856 56.0381 106.025 56.3739 104.099C56.7096 102.173 56.6289 100.198 56.137 98.3057L45.316 54.9642H101.368L90.4896 98.3057C90.0145 100.193 89.9475 102.16 90.2931 104.076C90.6386 105.991 91.3888 107.811 92.4935 109.413C106.62 130.081 115.646 153.803 118.831 178.634H27.5099C30.8105 153.794 39.9541 130.091 54.1904 109.47Z" fill="#E76F51"/>
</svg>
