<svg width="147" height="303" viewBox="0 0 147 303" fill="none" xmlns="http://www.w3.org/2000/svg">
<g clip-path="url(#clip0_226_73)">
<g clip-path="url(#clip1_226_73)">
<path d="M122.209 206.102C125.644 206.106 129.041 205.386 132.179 203.989C135.317 202.592 138.126 200.549 140.421 197.994C142.717 195.439 144.449 192.429 145.503 189.16C146.558 185.89 146.912 182.436 146.542 179.021C143.513 150.501 133.931 123.068 118.544 98.8646L127.991 61.363C129.04 57.3008 129.145 53.0524 128.298 48.9434C127.451 44.8343 125.674 40.9738 123.104 37.6577C120.534 34.3416 117.239 31.6579 113.471 29.8123C109.704 27.9667 105.563 27.0083 101.368 27.0104H87.0544V13.7274C87.0544 10.083 85.6067 6.58793 83.0297 4.01099C80.4528 1.43404 76.9577 -0.0136719 73.3133 -0.0136719C69.669 -0.0136719 66.1739 1.43404 63.597 4.01099C61.02 6.58793 59.5723 10.083 59.5723 13.7274V27.4684H45.316C41.1205 27.4663 36.9803 28.4248 33.2126 30.2703C29.445 32.1159 26.1498 34.7996 23.5798 38.1157C21.0099 41.4319 19.2332 45.2924 18.3861 49.4014C17.5389 53.5104 17.6438 57.7588 18.6927 61.821L28.1397 99.3226C12.7416 123.52 3.15859 150.956 0.14228 179.479C-0.227773 182.894 0.125993 186.348 1.18051 189.618C2.23504 192.887 3.96665 195.897 6.26248 198.452C8.5583 201.007 11.3668 203.05 14.5049 204.447C17.6431 205.844 21.0403 206.564 24.4754 206.56H59.5723V275.265H32.0902C28.4459 275.265 24.9508 276.713 22.3738 279.29C19.7969 281.867 18.3492 285.362 18.3492 289.006C18.3492 292.651 19.7969 296.146 22.3738 298.723C24.9508 301.3 28.4459 302.747 32.0902 302.747H114.536C118.181 302.747 121.676 301.3 124.253 298.723C126.83 296.146 128.277 292.651 128.277 289.006C128.277 285.362 126.83 281.867 124.253 279.29C121.676 276.713 118.181 275.265 114.536 275.265H87.0544V206.56L122.209 206.102ZM54.1904 109.457C55.2935 107.843 56.0381 106.011 56.3739 104.085C56.7096 102.159 56.6289 100.184 56.137 98.292L45.316 54.9505H101.368L90.4896 98.292C90.0145 100.179 89.9475 102.147 90.2931 104.062C90.6386 105.977 91.3888 107.797 92.4935 109.399C106.62 130.067 115.646 153.789 118.831 178.62H27.5099C30.8105 153.78 39.9541 130.078 54.1904 109.457Z" fill="#E76F51"/>
</g>
</g>
<defs>
<clipPath id="clip0_226_73">
<rect width="146.684" height="302.748" fill="white"/>
</clipPath>
<clipPath id="clip1_226_73">
<rect width="146.684" height="302.748" fill="white"/>
</clipPath>
</defs>
</svg>
