<svg width="448" height="449" viewBox="0 0 448 449" fill="none" xmlns="http://www.w3.org/2000/svg">
<path d="M224.1 110C160.5 110 109.2 161.3 109.2 224.9C109.2 288.5 160.5 339.8 224.1 339.8C287.7 339.8 339 288.5 339 224.9C339 161.3 287.7 110 224.1 110ZM224.1 299.6C183 299.6 149.4 266.1 149.4 224.9C149.4 183.7 182.9 150.2 224.1 150.2C265.3 150.2 298.8 183.7 298.8 224.9C298.8 266.1 265.2 299.6 224.1 299.6ZM370.5 105.3C370.5 120.2 358.5 132.1 343.7 132.1C328.8 132.1 316.9 120.1 316.9 105.3C316.9 90.5002 328.9 78.5002 343.7 78.5002C358.5 78.5002 370.5 90.5002 370.5 105.3ZM446.6 132.5C444.9 96.6002 436.7 64.8002 410.4 38.6002C384.2 12.4002 352.4 4.2002 316.5 2.4002C279.5 0.300195 168.6 0.300195 131.6 2.4002C95.8001 4.1002 64 12.3002 37.7001 38.5002C11.4001 64.7002 3.30005 96.5002 1.50005 132.4C-0.599951 169.4 -0.599951 280.3 1.50005 317.3C3.20005 353.2 11.4001 385 37.7001 411.2C64 437.4 95.7001 445.6 131.6 447.4C168.6 449.5 279.5 449.5 316.5 447.4C352.4 445.7 384.2 437.5 410.4 411.2C436.6 385 444.8 353.2 446.6 317.3C448.7 280.3 448.7 169.5 446.6 132.5ZM398.8 357C391 376.6 375.9 391.7 356.2 399.6C326.7 411.3 256.7 408.6 224.1 408.6C191.5 408.6 121.4 411.2 92 399.6C72.4 391.8 57.3001 376.7 49.4001 357C37.7001 327.5 40.4001 257.5 40.4001 224.9C40.4001 192.3 37.8001 122.2 49.4001 92.8002C57.2001 73.2002 72.3 58.1002 92 50.2002C121.5 38.5002 191.5 41.2002 224.1 41.2002C256.7 41.2002 326.8 38.6002 356.2 50.2002C375.8 58.0002 390.9 73.1002 398.8 92.8002C410.5 122.3 407.8 192.3 407.8 224.9C407.8 257.5 410.5 327.6 398.8 357Z" fill="#F7F7F7"/>
</svg>
