<svg width="512" height="384" viewBox="0 0 512 384" fill="none" xmlns="http://www.w3.org/2000/svg">
<path d="M64 48C55.2 48 48 55.2 48 64V86.1L220.5 227.7C241.2 244.7 270.9 244.7 291.6 227.7L464 86.1V64C464 55.2 456.8 48 448 48H64ZM48 148.2V320C48 328.8 55.2 336 64 336H448C456.8 336 464 328.8 464 320V148.2L322 264.8C283.6 296.3 228.3 296.3 190 264.8L48 148.2ZM0 64C0 28.7 28.7 0 64 0H448C483.3 0 512 28.7 512 64V320C512 355.3 483.3 384 448 384H64C28.7 384 0 355.3 0 320V64Z" fill="#F7F7F7"/>
</svg>
